<?xml version="1.0" encoding="UTF-8"?>
<svg version="1.1" xmlns="http://www.w3.org/2000/svg" width="180" height="180">
<path d="M0 0 C59.4 0 118.8 0 180 0 C180 59.4 180 118.8 180 180 C120.6 180 61.2 180 0 180 C0 120.6 0 61.2 0 0 Z " fill="#555655" transform="translate(0,0)"/>
<path d="M0 0 C0.7354303 -0.00525696 1.4708606 -0.01051392 2.22857666 -0.01593018 C4.6552058 -0.0291146 7.08117689 -0.02039797 9.5078125 -0.01025391 C11.1964531 -0.0122751 12.88509285 -0.01518691 14.57373047 -0.01895142 C18.11108723 -0.02337264 21.64821657 -0.01695028 25.18554688 -0.00292969 C29.71855776 0.01416219 34.25103576 0.00431992 38.7840271 -0.01364708 C42.27046724 -0.02449041 45.75678115 -0.02103608 49.2432251 -0.0132637 C50.91457177 -0.01126321 52.58592992 -0.01371569 54.25726318 -0.02070236 C56.59369235 -0.02832602 58.92925996 -0.01670066 61.265625 0 C61.95561584 -0.00607269 62.64560669 -0.01214539 63.35650635 -0.0184021 C66.32919138 0.02094019 68.41037704 0.27095659 71.05810547 1.66635132 C73.21185486 4.02132601 73.1600586 6.24940275 73.26171875 9.35302734 C72.27161607 12.55702421 70.39959757 13.5794381 67.6328125 15.38818359 C64.25585938 15.90284729 64.25585938 15.90284729 60.3515625 15.92163086 C59.27986816 15.93455421 59.27986816 15.93455421 58.18652344 15.94773865 C55.83491345 15.97036242 53.48449855 15.96366767 51.1328125 15.95458984 C49.49283495 15.95982676 47.85286042 15.9661035 46.21289062 15.97337341 C42.77980348 15.98377069 39.34713102 15.97922564 35.9140625 15.96459961 C31.51876235 15.94740503 27.12476866 15.97091758 22.72961426 16.00608921 C19.34431325 16.02806863 15.95932469 16.02662066 12.57397461 16.0183239 C10.95368008 16.01750481 9.33336251 16.02436022 7.71313477 16.03909492 C5.44596438 16.05655429 3.18113931 16.04199175 0.9140625 16.01928711 C-0.37435547 16.01832535 -1.66277344 16.01736359 -2.99023438 16.01637268 C-7.25637489 15.22277478 -8.74030612 13.78168192 -11.3671875 10.38818359 C-11.9296875 6.76318359 -11.9296875 6.76318359 -11.3671875 3.38818359 C-8.07416046 -0.13899298 -4.54465463 -0.03999806 0 0 Z " fill="#A7F9A7" transform="translate(59.3671875,140.61181640625)"/>
<path d="M0 0 C0.7354303 -0.00525696 1.4708606 -0.01051392 2.22857666 -0.01593018 C4.6552058 -0.0291146 7.08117689 -0.02039797 9.5078125 -0.01025391 C11.1964531 -0.0122751 12.88509285 -0.01518691 14.57373047 -0.01895142 C18.11108723 -0.02337264 21.64821657 -0.01695028 25.18554688 -0.00292969 C29.71855776 0.01416219 34.25103576 0.00431992 38.7840271 -0.01364708 C42.27046724 -0.02449041 45.75678115 -0.02103608 49.2432251 -0.0132637 C50.91457177 -0.01126321 52.58592992 -0.01371569 54.25726318 -0.02070236 C56.59369235 -0.02832602 58.92925996 -0.01670066 61.265625 0 C61.95561584 -0.00607269 62.64560669 -0.01214539 63.35650635 -0.0184021 C66.32919138 0.02094019 68.41037704 0.27095659 71.05810547 1.66635132 C73.21185486 4.02132601 73.1600586 6.24940275 73.26171875 9.35302734 C72.27161607 12.55702421 70.39959757 13.5794381 67.6328125 15.38818359 C64.25585938 15.90284729 64.25585938 15.90284729 60.3515625 15.92163086 C59.27986816 15.93455421 59.27986816 15.93455421 58.18652344 15.94773865 C55.83491345 15.97036242 53.48449855 15.96366767 51.1328125 15.95458984 C49.49283495 15.95982676 47.85286042 15.9661035 46.21289062 15.97337341 C42.77980348 15.98377069 39.34713102 15.97922564 35.9140625 15.96459961 C31.51876235 15.94740503 27.12476866 15.97091758 22.72961426 16.00608921 C19.34431325 16.02806863 15.95932469 16.02662066 12.57397461 16.0183239 C10.95368008 16.01750481 9.33336251 16.02436022 7.71313477 16.03909492 C5.44596438 16.05655429 3.18113931 16.04199175 0.9140625 16.01928711 C-0.37435547 16.01832535 -1.66277344 16.01736359 -2.99023438 16.01637268 C-7.25637489 15.22277478 -8.74030612 13.78168192 -11.3671875 10.38818359 C-11.9296875 6.76318359 -11.9296875 6.76318359 -11.3671875 3.38818359 C-8.07416046 -0.13899298 -4.54465463 -0.03999806 0 0 Z " fill="#A7F9A7" transform="translate(59.3671875,24.61181640625)"/>
<path d="M0 0 C0.71540955 -0.00807175 1.43081909 -0.01614349 2.16790771 -0.02445984 C3.68434224 -0.03829833 5.20080788 -0.04902155 6.71728516 -0.05688477 C9.02437394 -0.07405132 11.33001182 -0.11792999 13.63671875 -0.16210938 C15.11196865 -0.17224087 16.58723072 -0.18075555 18.0625 -0.1875 C19.08938934 -0.21376213 19.08938934 -0.21376213 20.13702393 -0.24055481 C25.1300962 -0.21821143 27.95980765 1.10095307 31.796875 4.23828125 C32.59375 6.23828125 32.59375 6.23828125 32.546875 8.23828125 C32.56234375 8.89828125 32.5778125 9.55828125 32.59375 10.23828125 C31.26975849 13.56124034 28.858893 14.54008124 25.796875 16.23828125 C23.03948575 16.6216287 20.6954559 16.80143125 17.94921875 16.76953125 C17.21490128 16.77335815 16.4805838 16.77718506 15.72401428 16.78112793 C14.18017191 16.78383626 12.6362828 16.77655082 11.0925293 16.75976562 C8.73707467 16.73830585 6.38465861 16.75961589 4.02929688 16.78515625 C2.52343081 16.78251338 1.01756663 16.77738923 -0.48828125 16.76953125 C-1.53690086 16.78167664 -1.53690086 16.78167664 -2.60670471 16.79406738 C-7.39178359 16.70278623 -9.87334522 15.66733542 -13.203125 12.23828125 C-14.328125 9.30078125 -14.328125 9.30078125 -14.203125 6.23828125 C-9.73135285 0.79963944 -6.72336962 0.07169887 0 0 Z " fill="#A5F6A5" transform="translate(42.203125,81.76171875)"/>
<path d="M0 0 C0.71540955 -0.00807175 1.43081909 -0.01614349 2.16790771 -0.02445984 C3.68434224 -0.03829833 5.20080788 -0.04902155 6.71728516 -0.05688477 C9.02437394 -0.07405132 11.33001182 -0.11792999 13.63671875 -0.16210938 C15.11196865 -0.17224087 16.58723072 -0.18075555 18.0625 -0.1875 C19.08938934 -0.21376213 19.08938934 -0.21376213 20.13702393 -0.24055481 C25.13097137 -0.21820751 27.98440816 1.05942653 31.796875 4.23828125 C32.921875 7.17578125 32.921875 7.17578125 32.796875 10.23828125 C30.69659354 13.61373359 29.59484616 14.97229086 25.796875 16.23828125 C23.34211439 16.35848766 20.91651656 16.42629632 18.4609375 16.44140625 C17.38638809 16.44995636 17.38638809 16.44995636 16.29013062 16.4586792 C14.77546663 16.46811661 13.26078223 16.47465818 11.74609375 16.47851562 C9.43713297 16.48821714 7.12906431 16.519249 4.8203125 16.55078125 C3.34635943 16.5573123 1.87240002 16.56256237 0.3984375 16.56640625 C-0.28817963 16.57875305 -0.97479675 16.59109985 -1.68222046 16.6038208 C-6.02673737 16.58378108 -8.74611994 15.89552537 -12.203125 13.23828125 C-13.62354321 10.39744484 -13.51764772 8.38350847 -13.203125 5.23828125 C-9.23254243 0.34122942 -6.00260811 0.06401258 0 0 Z " fill="#A6F7A6" transform="translate(119.203125,81.76171875)"/>
<path d="M0 0 C1.14045021 0.00137466 1.14045021 0.00137466 2.30393982 0.0027771 C3.90508296 0.0087984 5.5062156 0.02450028 7.10717773 0.04931641 C9.55429685 0.08587331 11.99990161 0.09033514 14.44726562 0.08984375 C16.00652346 0.09967427 17.56577109 0.11133099 19.125 0.125 C20.21887779 0.12833847 20.21887779 0.12833847 21.33485413 0.13174438 C25.01163107 0.20030432 27.94957508 0.28478767 30.99609375 2.4609375 C32.99609375 5.4609375 32.99609375 5.4609375 32.87109375 8.9609375 C31.99609375 12.4609375 31.99609375 12.4609375 30.46289062 14.15258789 C26.93527687 16.02357781 23.55133632 15.9092787 19.65234375 15.89453125 C18.44318298 15.90239403 18.44318298 15.90239403 17.20959473 15.91041565 C15.50839386 15.91682778 13.80714861 15.91550929 12.10595703 15.90698242 C9.50473101 15.89846578 6.90569701 15.92725275 4.3046875 15.95898438 C2.64974024 15.96059639 0.9947891 15.96001885 -0.66015625 15.95703125 C-1.43629272 15.96826523 -2.2124292 15.97949921 -3.01208496 15.99107361 C-6.5325061 15.94568199 -8.6088968 15.74885533 -11.49023438 13.64868164 C-13.72949735 10.4122243 -13.62021367 8.2957392 -13.00390625 4.4609375 C-9.0806102 0.23874607 -5.49460241 -0.10858101 0 0 Z " fill="#A8FBA8" transform="translate(119.00390625,62.5390625)"/>
<path d="M0 0 C1.17018677 -0.00361794 1.17018677 -0.00361794 2.36401367 -0.00730896 C4.00802714 -0.00633253 5.65207432 0.00701253 7.29589844 0.03198242 C9.80517824 0.0663061 12.31093578 0.05263088 14.8203125 0.03320312 C16.42188991 0.04010199 18.02345828 0.04977475 19.625 0.0625 C20.37096436 0.05754013 21.11692871 0.05258026 21.88549805 0.04747009 C25.5057161 0.12887944 27.67218413 0.54315638 30.78515625 2.44555664 C32.8125 4.62890625 32.8125 4.62890625 33.4375 8.12890625 C32.8125 11.62890625 32.8125 11.62890625 30.78735352 13.81445312 C27.02247622 16.11076565 23.87088174 16.20642934 19.58984375 16.16015625 C18.41609947 16.16589661 18.41609947 16.16589661 17.21864319 16.17175293 C15.57047228 16.17446602 13.92225788 16.16714702 12.27416992 16.15039062 C9.75406946 16.12894089 7.23681003 16.1502248 4.71679688 16.17578125 C3.11197289 16.17313843 1.50715067 16.16801438 -0.09765625 16.16015625 C-1.22434471 16.17230164 -1.22434471 16.17230164 -2.37379456 16.18469238 C-5.85150973 16.1224336 -7.81932662 15.90808566 -10.62670898 13.77929688 C-12.69927996 10.92379786 -13.25972359 9.16786239 -13.1875 5.62890625 C-9.38920955 0.57243209 -6.02884693 -0.10715219 0 0 Z " fill="#A8FBA8" transform="translate(41.1875,101.37109375)"/>
<path d="M0 0 C0.75792847 -0.0038269 1.51585693 -0.00765381 2.29675293 -0.01159668 C3.89364964 -0.01430955 5.49059126 -0.00699203 7.08740234 0.00976562 C9.52412494 0.03118736 11.95789976 0.00994611 14.39453125 -0.015625 C15.9505273 -0.01298161 17.50652153 -0.00785639 19.0625 0 C19.78659058 -0.00809692 20.51068115 -0.01619385 21.25671387 -0.02453613 C24.83204279 0.04135012 26.92548424 0.46678921 30.00195312 2.34179688 C32.03125 4.53125 32.03125 4.53125 32.46875 8.09375 C32.03125 11.53125 32.03125 11.53125 30.03125 14.53125 C24.27297488 16.45067504 17.73978405 15.83797118 11.69873047 15.88134766 C10.00718434 15.89791552 8.31570847 15.9252169 6.62451172 15.96337891 C4.17899472 16.01823252 1.73511231 16.04003035 -0.7109375 16.0546875 C-1.46317596 16.07735687 -2.21541443 16.10002625 -2.990448 16.12338257 C-6.99165101 16.10733671 -8.78184342 15.67671617 -11.97705078 13.18994141 C-13.96875 10.53125 -13.96875 10.53125 -14.09375 7.46875 C-11.52440112 0.7598946 -6.58137012 -0.07359418 0 0 Z " fill="#A8FBA8" transform="translate(41.96875,62.46875)"/>
<path d="M0 0 C1.10359863 -0.00218285 1.10359863 -0.00218285 2.22949219 -0.00440979 C3.77933731 -0.00275564 5.32919968 0.00875148 6.87890625 0.02954102 C9.2429017 0.05850678 11.60465313 0.05013944 13.96875 0.03710938 C15.4791775 0.04334742 16.98959796 0.05173888 18.5 0.0625 C19.2022168 0.05956436 19.90443359 0.05662872 20.62792969 0.05360413 C26.1812686 0.15965747 29.36409498 1.61018873 33.25 5.49609375 C33.02668849 11.63716038 33.02668849 11.63716038 30.71679688 14.19165039 C27.18858781 16.05736902 23.80377516 15.9444294 19.90625 15.9296875 C18.69708923 15.93755028 18.69708923 15.93755028 17.46350098 15.9455719 C15.76230011 15.95198403 14.06105486 15.95066554 12.35986328 15.94213867 C9.75863726 15.93362203 7.15960326 15.962409 4.55859375 15.99414062 C2.90364649 15.99575264 1.24869535 15.9951751 -0.40625 15.9921875 C-1.18238647 16.00342148 -1.95852295 16.01465546 -2.75817871 16.02622986 C-6.27859985 15.98083824 -8.35499055 15.78401158 -11.23632812 13.68383789 C-13.4755911 10.44738055 -13.36630742 8.33089545 -12.75 4.49609375 C-8.87958132 0.36718639 -5.4138853 -0.08661067 0 0 Z " fill="#A7FAA7" transform="translate(118.75,120.50390625)"/>
<path d="M0 0 C0.75934341 -0.00145523 1.51868683 -0.00291046 2.30104065 -0.00440979 C3.90393924 -0.00275296 5.50685409 0.0087844 7.10961914 0.02954102 C9.55489183 0.05845759 11.99798974 0.05015463 14.44335938 0.03710938 C16.00391673 0.0433486 17.56446726 0.05174098 19.125 0.0625 C19.85222763 0.05956436 20.57945526 0.05662872 21.32872009 0.05360413 C26.17210113 0.14297116 29.64171127 1.00889877 33.12890625 4.49609375 C33.70918631 10.64706234 33.70918631 10.64706234 31.62866211 13.69116211 C28.1485179 16.20397646 24.95761268 16.08904655 20.8203125 16.0625 C19.61470924 16.07179787 19.61470924 16.07179787 18.38475037 16.08128357 C16.68774627 16.08837574 14.99067251 16.08521815 13.29370117 16.07250977 C10.70295507 16.05865551 8.11583101 16.09270312 5.52539062 16.13085938 C3.87369704 16.13181076 2.22199894 16.12995071 0.5703125 16.125 C-0.58615028 16.14488731 -0.58615028 16.14488731 -1.76597595 16.16517639 C-5.79589036 16.09574849 -7.67521804 15.64819199 -10.89477539 13.14819336 C-12.87109375 10.49609375 -12.87109375 10.49609375 -12.93359375 7.43359375 C-10.50462974 0.71822265 -6.67058247 -0.10275898 0 0 Z " fill="#A7FAA7" transform="translate(40.87109375,120.50390625)"/>
<path d="M0 0 C1.20560326 -0.00929787 1.20560326 -0.00929787 2.43556213 -0.01878357 C4.13256623 -0.02587574 5.82963999 -0.02271815 7.52661133 -0.01000977 C10.11735743 0.00384449 12.70448149 -0.03020312 15.29492188 -0.06835938 C16.94661546 -0.06931076 18.59831356 -0.06745071 20.25 -0.0625 C21.40646278 -0.08238731 21.40646278 -0.08238731 22.58628845 -0.10267639 C26.61620286 -0.03324849 28.49553054 0.41430801 31.71508789 2.91430664 C33.69140625 5.56640625 33.69140625 5.56640625 33.75390625 8.62890625 C32.51575803 12.05202191 31.5846299 13.36278034 28.69140625 15.56640625 C25.93007904 15.95255987 23.57654264 16.10495917 20.8203125 16.0625 C20.06096909 16.06395523 19.30162567 16.06541046 18.51927185 16.06690979 C16.91637326 16.06525296 15.31345841 16.0537156 13.71069336 16.03295898 C11.26542067 16.00404241 8.82232276 16.01234537 6.37695312 16.02539062 C4.81639577 16.0191514 3.25584524 16.01075902 1.6953125 16 C0.96808487 16.00293564 0.24085724 16.00587128 -0.50840759 16.00889587 C-5.35178863 15.91952884 -8.82139877 15.05360123 -12.30859375 11.56640625 C-12.88887381 5.41543766 -12.88887381 5.41543766 -10.80834961 2.37133789 C-7.3282054 -0.14147646 -4.13730018 -0.02654655 0 0 Z " fill="#A8FBA8" transform="translate(118.30859375,43.43359375)"/>
<path d="M0 0 C0.78153946 -0.00145523 1.56307892 -0.00291046 2.36830139 -0.00440979 C4.01827732 -0.00275272 5.668269 0.00878722 7.31811523 0.02954102 C9.83579634 0.05845753 12.35136537 0.05015484 14.86914062 0.03710938 C16.4752706 0.04334854 18.08139395 0.05174088 19.6875 0.0625 C20.81115211 0.05809654 20.81115211 0.05809654 21.95750427 0.05360413 C26.42178096 0.13364507 29.39766322 0.66796655 32.91015625 3.49609375 C33.97265625 6.37109375 33.97265625 6.37109375 33.91015625 9.49609375 C32.13976176 12.24325762 30.84723781 14.02755297 27.91015625 15.49609375 C25.34263822 15.63132445 22.80349948 15.70871437 20.234375 15.734375 C19.47220169 15.74244675 18.71002838 15.75051849 17.92475891 15.75883484 C16.30996982 15.7726735 14.69515151 15.78339664 13.08032227 15.79125977 C10.61743292 15.80845567 8.15589219 15.85233882 5.69335938 15.89648438 C4.12370778 15.9066131 2.55404478 15.91512864 0.984375 15.921875 C0.25087326 15.93938309 -0.48262848 15.95689117 -1.23835754 15.97492981 C-4.85338116 15.95968828 -6.94657964 15.58331489 -10.05932617 13.68823242 C-12.08984375 11.49609375 -12.08984375 11.49609375 -12.65234375 7.99609375 C-11.44244703 0.46784751 -6.79554484 -0.10163546 0 0 Z " fill="#A8FCA8" transform="translate(118.08984375,101.50390625)"/>
<path d="M0 0 C0.80610718 -0.00524185 1.61221436 -0.0104837 2.44274902 -0.0158844 C4.14394989 -0.02229653 5.84519514 -0.02097804 7.54638672 -0.01245117 C10.14761274 -0.00393453 12.74664674 -0.0327215 15.34765625 -0.06445312 C17.00260351 -0.06606514 18.65755465 -0.0654876 20.3125 -0.0625 C21.08863647 -0.07373398 21.86477295 -0.08496796 22.66442871 -0.09654236 C26.18439686 -0.05115658 28.26464266 0.1496631 31.15039062 2.24194336 C33.33318042 5.41880847 33.1347116 7.67425263 32.65625 11.43359375 C30.82509793 14.04952528 29.74656634 14.4034883 26.65625 15.43359375 C21.69011426 15.73198068 16.72518941 15.78943736 11.75097656 15.83862305 C10.10785942 15.86022591 8.46485806 15.89435671 6.82226562 15.94116211 C4.44609541 16.00820065 2.07229508 16.03561979 -0.3046875 16.0546875 C-1.40023453 16.09643349 -1.40023453 16.09643349 -2.51791382 16.13902283 C-5.37776028 16.1275344 -7.65769343 15.97384018 -9.95123291 14.16775513 C-12.34368361 11.4610663 -13.33468949 9.89567998 -13.40625 6.24609375 C-10.97957851 -0.17744842 -6.17412069 -0.02335283 0 0 Z " fill="#A8FBA8" transform="translate(41.34375,43.56640625)"/>
<path d="M0 0 C0.33 0 0.66 0 1 0 C1 3.63 1 7.26 1 11 C-2.63 11 -6.26 11 -10 11 C-9.2575 10.443125 -8.515 9.88625 -7.75 9.3125 C-4.52326049 6.59910541 -1.89487672 3.78975344 0 0 Z " fill="#000000" transform="translate(179,169)"/>
<path d="M0 0 C0.556875 0.7425 1.11375 1.485 1.6875 2.25 C3.93727787 4.92541152 6.2309174 6.88675275 9 9 C9.66 9.66 10.32 10.32 11 11 C7.37 11 3.74 11 0 11 C0 7.37 0 3.74 0 0 Z " fill="#000000" transform="translate(0,169)"/>
<path d="M0 0 C3.63 0 7.26 0 11 0 C11 3.63 11 7.26 11 11 C10.443125 10.2575 9.88625 9.515 9.3125 8.75 C7.06272213 6.07458848 4.7690826 4.11324725 2 2 C1.34 1.34 0.68 0.68 0 0 Z " fill="#000000" transform="translate(169,0)"/>
<path d="M0 0 C3.63 0 7.26 0 11 0 C10.2575 0.556875 9.515 1.11375 8.75 1.6875 C6.07458848 3.93727787 4.11324725 6.2309174 2 9 C1.34 9.66 0.68 10.32 0 11 C0 7.37 0 3.74 0 0 Z " fill="#000000" transform="translate(0,0)"/>
</svg>
